<svg width="657" height="98" viewBox="0 0 657 98" fill="none" xmlns="http://www.w3.org/2000/svg">
<path d="M37.0625 90.625C34.8125 93.1667 32.25 94.9792 29.375 96.0625C26.5417 97.1458 23.5417 97.6875 20.375 97.6875C16.875 97.6875 13.375 97.1875 9.875 96.1875C6.375 95.2292 3.14583 94.0208 0.1875 92.5625V71.5625L6.8125 70.25L11.4375 89.1875C13.9792 90.0625 16.3333 90.5 18.5 90.5C21.375 90.5 23.625 89.8958 25.25 88.6875C26.875 87.4375 28.0833 85.7917 28.875 83.75C29.7083 81.6667 30.2292 79.2917 30.4375 76.625C30.6458 73.9167 30.75 71.0833 30.75 68.125V62.5625V14.5625L18.625 12.1875L19.875 6.375H54.8125V10.875L43.5625 14.5625V61.5625C43.5625 64.0208 43.5417 66.5417 43.5 69.125C43.4583 71.6667 43.25 74.2083 42.875 76.75C42.5 79.25 41.8542 81.6875 40.9375 84.0625C40.0625 86.3958 38.7708 88.5833 37.0625 90.625ZM74.625 61.6875C74.625 65.9792 75.1875 69.7917 76.3125 73.125C77.4792 76.4167 79.0833 79.25 81.125 81.625C83.1667 83.9583 85.5625 85.75 88.3125 87C91.1042 88.2083 94.125 88.8125 97.375 88.8125C103.375 88.8125 109.646 86.7292 116.188 82.5625L119 87.4375C114.833 90.6875 110.521 93.125 106.062 94.75C101.646 96.3333 97.3125 97.125 93.0625 97.125C88.7708 97.125 84.75 96.375 81 94.875C77.25 93.3333 73.9375 91.0833 71.0625 88.125C68.2292 85.1667 65.9792 81.5417 64.3125 77.25C62.6458 72.9583 61.8125 68.0208 61.8125 62.4375C61.8125 56.8125 62.7292 51.875 64.5625 47.625C66.3958 43.3333 68.7708 39.7708 71.6875 36.9375C74.6458 34.0625 77.9583 31.9375 81.625 30.5625C85.2917 29.1458 88.9583 28.4375 92.625 28.4375C98.375 28.4375 103.021 29.4167 106.562 31.375C110.104 33.3333 112.875 35.8958 114.875 39.0625C116.875 42.1875 118.229 45.75 118.938 49.75C119.688 53.7083 120.062 57.6875 120.062 61.6875H74.625ZM107.25 54.8125C107.25 51.4792 106.812 48.5833 105.938 46.125C105.104 43.625 104 41.5833 102.625 40C101.25 38.4167 99.6458 37.25 97.8125 36.5C95.9792 35.7083 94.125 35.3125 92.25 35.3125C90.2083 35.3125 88.1875 35.75 86.1875 36.625C84.1875 37.4583 82.375 38.7083 80.75 40.375C79.125 42.0417 77.7708 44.0833 76.6875 46.5C75.6458 48.875 75.0833 51.6458 75 54.8125H107.25ZM130.875 75.75L137.562 74.625L141 87.3125C143.208 88.2292 145.167 88.9583 146.875 89.5C148.583 90 150.688 90.25 153.188 90.25C157.021 90.25 160.146 89.3958 162.562 87.6875C165.021 85.9792 166.292 83.2083 166.375 79.375C166.458 76.875 165.667 74.8542 164 73.3125C162.333 71.7292 160.208 70.3125 157.625 69.0625C155.083 67.8125 152.333 66.6458 149.375 65.5625C146.458 64.4375 143.708 63.0625 141.125 61.4375C138.583 59.8125 136.458 57.8542 134.75 55.5625C133.042 53.2708 132.188 50.3333 132.188 46.75C132.188 43.4167 133 40.6042 134.625 38.3125C136.25 35.9792 138.333 34.0833 140.875 32.625C143.417 31.1667 146.292 30.125 149.5 29.5C152.708 28.875 155.854 28.5625 158.938 28.5625C162.604 28.5625 165.938 28.9583 168.938 29.75C171.979 30.5 174.146 31.5 175.438 32.75V48.75L168.75 49.9375L165.312 36.875C163.854 36.4583 162.521 36.1458 161.312 35.9375C160.146 35.6875 158.542 35.5625 156.5 35.5625C154.875 35.5625 153.312 35.7292 151.812 36.0625C150.312 36.3542 148.979 36.8333 147.812 37.5C146.688 38.1667 145.771 39.1042 145.062 40.3125C144.396 41.5208 144.062 43.0208 144.062 44.8125C144.062 47.3542 144.917 49.4583 146.625 51.125C148.333 52.7917 150.438 54.2708 152.938 55.5625C155.479 56.8542 158.229 58.0833 161.188 59.25C164.188 60.375 166.938 61.7083 169.438 63.25C171.979 64.7917 174.104 66.6875 175.812 68.9375C177.521 71.1875 178.375 74.0208 178.375 77.4375C178.375 81.1875 177.667 84.3542 176.25 86.9375C174.833 89.4792 172.938 91.5208 170.562 93.0625C168.188 94.6042 165.479 95.6875 162.438 96.3125C159.396 96.9375 156.271 97.25 153.062 97.25C148.854 97.25 144.792 96.8333 140.875 96C136.958 95.1667 133.625 94.1458 130.875 92.9375V75.75ZM195.5 37.375L185.25 35.1875L186.562 29.4375H207.062V70.9375C207.062 74.1458 207.312 76.7708 207.812 78.8125C208.312 80.8125 209.062 82.3958 210.062 83.5625C211.104 84.6875 212.396 85.4583 213.938 85.875C215.479 86.2917 217.271 86.5 219.312 86.5C221.021 86.5 222.75 86.3542 224.5 86.0625C226.25 85.7708 227.917 85.3333 229.5 84.75C231.083 84.125 232.521 83.4375 233.812 82.6875C235.146 81.9375 236.25 81.0417 237.125 80V37.375L227.375 35.5625L228.688 29.4375H248.5V88.0625L258.875 90.375L257.5 96H237.125V86.25C235.667 88.0417 234.021 89.6042 232.188 90.9375C230.354 92.2708 228.458 93.3958 226.5 94.3125C224.542 95.1875 222.583 95.8542 220.625 96.3125C218.667 96.7708 216.792 97 215 97C208.833 97 204.062 95.125 200.688 91.375C197.312 87.625 195.583 81.6667 195.5 73.5V37.375ZM223.25 23.6875H216.25L227.375 0.25H239.938L223.25 23.6875ZM267 75.75L273.688 74.625L277.125 87.3125C279.333 88.2292 281.292 88.9583 283 89.5C284.708 90 286.812 90.25 289.312 90.25C293.146 90.25 296.271 89.3958 298.688 87.6875C301.146 85.9792 302.417 83.2083 302.5 79.375C302.583 76.875 301.792 74.8542 300.125 73.3125C298.458 71.7292 296.333 70.3125 293.75 69.0625C291.208 67.8125 288.458 66.6458 285.5 65.5625C282.583 64.4375 279.833 63.0625 277.25 61.4375C274.708 59.8125 272.583 57.8542 270.875 55.5625C269.167 53.2708 268.312 50.3333 268.312 46.75C268.312 43.4167 269.125 40.6042 270.75 38.3125C272.375 35.9792 274.458 34.0833 277 32.625C279.542 31.1667 282.417 30.125 285.625 29.5C288.833 28.875 291.979 28.5625 295.062 28.5625C298.729 28.5625 302.062 28.9583 305.062 29.75C308.104 30.5 310.271 31.5 311.562 32.75V48.75L304.875 49.9375L301.438 36.875C299.979 36.4583 298.646 36.1458 297.438 35.9375C296.271 35.6875 294.667 35.5625 292.625 35.5625C291 35.5625 289.438 35.7292 287.938 36.0625C286.438 36.3542 285.104 36.8333 283.938 37.5C282.812 38.1667 281.896 39.1042 281.188 40.3125C280.521 41.5208 280.188 43.0208 280.188 44.8125C280.188 47.3542 281.042 49.4583 282.75 51.125C284.458 52.7917 286.562 54.2708 289.062 55.5625C291.604 56.8542 294.354 58.0833 297.312 59.25C300.312 60.375 303.062 61.7083 305.562 63.25C308.104 64.7917 310.229 66.6875 311.938 68.9375C313.646 71.1875 314.5 74.0208 314.5 77.4375C314.5 81.1875 313.792 84.3542 312.375 86.9375C310.958 89.4792 309.062 91.5208 306.688 93.0625C304.312 94.6042 301.604 95.6875 298.562 96.3125C295.521 96.9375 292.396 97.25 289.188 97.25C284.979 97.25 280.917 96.8333 277 96C273.083 95.1667 269.75 94.1458 267 92.9375V75.75ZM417.25 14.9375C415.208 13.6042 412.833 12.75 410.125 12.375C407.458 12 404.833 11.8125 402.25 11.8125C398.167 11.8125 394.188 12.6042 390.312 14.1875C386.438 15.7708 383 18.2083 380 21.5C377 24.7917 374.604 28.9375 372.812 33.9375C371.021 38.9375 370.125 44.8125 370.125 51.5625C370.125 58.8542 371.021 65 372.812 70C374.604 74.9583 377.042 78.9583 380.125 82C383.208 85.0417 386.75 87.25 390.75 88.625C394.75 89.9583 398.979 90.6458 403.438 90.6875C406.688 90.6458 409.438 90.2917 411.688 89.625C413.938 88.9167 416.042 88.0625 418 87.0625L422.625 67.25L429.125 68.625V90.5C425.458 92.2917 421.312 93.9583 416.688 95.5C412.104 97.0417 406.667 97.8125 400.375 97.8125C394.542 97.8125 388.979 96.8333 383.688 94.875C378.396 92.875 373.75 89.9375 369.75 86.0625C365.75 82.1875 362.562 77.3542 360.188 71.5625C357.854 65.7708 356.688 59.1042 356.688 51.5625C356.688 44.1875 357.979 37.625 360.562 31.875C363.188 26.0833 366.688 21.1875 371.062 17.1875C375.479 13.1458 380.562 10.0625 386.312 7.9375C392.104 5.77083 398.146 4.6875 404.438 4.6875C408.354 4.6875 412.271 5.125 416.188 6C420.146 6.83333 424.083 8.16667 428 10V31.8125L421.562 33.125L417.25 14.9375ZM474.375 90C477.792 90 480.708 89.25 483.125 87.75C485.542 86.25 487.521 84.2708 489.062 81.8125C490.604 79.3125 491.729 76.5 492.438 73.375C493.188 70.2083 493.562 66.9583 493.562 63.625C493.562 60.125 493.208 56.6667 492.5 53.25C491.833 49.8333 490.688 46.7917 489.062 44.125C487.438 41.4167 485.271 39.25 482.562 37.625C479.896 36 476.562 35.1875 472.562 35.1875C469.146 35.1875 466.208 35.9375 463.75 37.4375C461.333 38.9375 459.354 40.9375 457.812 43.4375C456.312 45.8958 455.188 48.7083 454.438 51.875C453.729 55 453.375 58.2292 453.375 61.5625C453.375 65.0625 453.708 68.5208 454.375 71.9375C455.042 75.3542 456.188 78.4167 457.812 81.125C459.438 83.7917 461.583 85.9375 464.25 87.5625C466.958 89.1875 470.333 90 474.375 90ZM472.438 28.1875C478.146 28.1875 483.125 29.1458 487.375 31.0625C491.667 32.9792 495.208 35.5417 498 38.75C500.833 41.9167 502.938 45.5625 504.312 49.6875C505.688 53.7708 506.375 57.9375 506.375 62.1875C506.375 66.5625 505.667 70.8125 504.25 74.9375C502.833 79.0625 500.771 82.7708 498.062 86.0625C495.396 89.3542 492.083 92 488.125 94C484.167 96 479.625 97 474.5 97C468.75 97 463.75 96.0417 459.5 94.125C455.25 92.2083 451.708 89.6667 448.875 86.5C446.042 83.2917 443.938 79.6458 442.562 75.5625C441.229 71.4375 440.562 67.25 440.562 63C440.562 58.625 441.271 54.375 442.688 50.25C444.104 46.125 446.146 42.4167 448.812 39.125C451.521 35.8333 454.854 33.1875 458.812 31.1875C462.771 29.1875 467.312 28.1875 472.438 28.1875ZM521.375 10.75L510.75 8.6875L510.062 3.0625L532.875 0V36.75C536.125 33.8333 539.479 31.7292 542.938 30.4375C546.396 29.1042 549.792 28.4375 553.125 28.4375C556.708 28.4375 560.125 29.1667 563.375 30.625C566.667 32.0417 569.562 34.1458 572.062 36.9375C574.604 39.6875 576.604 43.0208 578.062 46.9375C579.521 50.8125 580.25 55.1875 580.25 60.0625C580.25 66.5208 579.312 72.125 577.438 76.875C575.562 81.5833 573 85.4792 569.75 88.5625C566.5 91.6458 562.667 93.9375 558.25 95.4375C553.875 96.9375 549.167 97.6875 544.125 97.6875C540.542 97.6875 536.688 97.2708 532.562 96.4375C528.438 95.6458 524.708 94.3958 521.375 92.6875V10.75ZM532.875 86.9375C537.75 89.3958 542.312 90.625 546.562 90.625C549.812 90.625 552.729 89.9583 555.312 88.625C557.938 87.2917 560.146 85.4375 561.938 83.0625C563.729 80.6875 565.104 77.8333 566.062 74.5C567.062 71.1667 567.562 67.5417 567.562 63.625C567.562 55.75 565.896 49.5625 562.562 45.0625C559.229 40.5208 554.75 38.25 549.125 38.25C544.167 38.25 538.75 40.125 532.875 43.875V86.9375ZM624.375 90C627.792 90 630.708 89.25 633.125 87.75C635.542 86.25 637.521 84.2708 639.062 81.8125C640.604 79.3125 641.729 76.5 642.438 73.375C643.188 70.2083 643.562 66.9583 643.562 63.625C643.562 60.125 643.208 56.6667 642.5 53.25C641.833 49.8333 640.688 46.7917 639.062 44.125C637.438 41.4167 635.271 39.25 632.562 37.625C629.896 36 626.562 35.1875 622.562 35.1875C619.146 35.1875 616.208 35.9375 613.75 37.4375C611.333 38.9375 609.354 40.9375 607.812 43.4375C606.312 45.8958 605.188 48.7083 604.438 51.875C603.729 55 603.375 58.2292 603.375 61.5625C603.375 65.0625 603.708 68.5208 604.375 71.9375C605.042 75.3542 606.188 78.4167 607.812 81.125C609.438 83.7917 611.583 85.9375 614.25 87.5625C616.958 89.1875 620.333 90 624.375 90ZM622.438 28.1875C628.146 28.1875 633.125 29.1458 637.375 31.0625C641.667 32.9792 645.208 35.5417 648 38.75C650.833 41.9167 652.938 45.5625 654.312 49.6875C655.688 53.7708 656.375 57.9375 656.375 62.1875C656.375 66.5625 655.667 70.8125 654.25 74.9375C652.833 79.0625 650.771 82.7708 648.062 86.0625C645.396 89.3542 642.083 92 638.125 94C634.167 96 629.625 97 624.5 97C618.75 97 613.75 96.0417 609.5 94.125C605.25 92.2083 601.708 89.6667 598.875 86.5C596.042 83.2917 593.938 79.6458 592.562 75.5625C591.229 71.4375 590.562 67.25 590.562 63C590.562 58.625 591.271 54.375 592.688 50.25C594.104 46.125 596.146 42.4167 598.812 39.125C601.521 35.8333 604.854 33.1875 608.812 31.1875C612.771 29.1875 617.312 28.1875 622.438 28.1875Z" fill="#FFFEFE"/>
</svg>
