<svg width="650" height="102" viewBox="0 0 650 102" fill="none" xmlns="http://www.w3.org/2000/svg">
<path d="M52.632 71.456C52.632 75.7227 52.1627 79.6907 51.224 83.36C50.3707 87.0293 48.792 90.272 46.488 93.088C44.2693 95.8187 41.24 97.9947 37.4 99.616C33.6453 101.152 28.9093 101.92 23.192 101.92C20.2907 101.92 17.6027 101.664 15.128 101.152C12.7387 100.725 10.5627 100.171 8.6 99.488C6.63733 98.72 4.93067 97.952 3.48 97.184C2.02933 96.3307 0.877333 95.52 0.024 94.752L4.888 84.896C6.68 86.176 8.984 87.5413 11.8 88.992C14.7013 90.3573 18.2853 91.04 22.552 91.04C28.696 91.04 33.176 89.504 35.992 86.432C38.808 83.2747 40.216 77.8987 40.216 70.304V11.296H52.632V71.456ZM69.528 66.848C69.528 60.96 70.3813 55.84 72.088 51.488C73.7947 47.0507 76.056 43.3813 78.872 40.48C81.688 37.5787 84.9307 35.4027 88.6 33.952C92.2693 32.5013 96.024 31.776 99.864 31.776C108.824 31.776 115.693 34.592 120.472 40.224C125.251 45.7707 127.64 54.2613 127.64 65.696C127.64 66.208 127.64 66.8907 127.64 67.744C127.64 68.512 127.597 69.2373 127.512 69.92H81.944C82.456 76.832 84.4613 82.08 87.96 85.664C91.4587 89.248 96.92 91.04 104.344 91.04C108.525 91.04 112.024 90.6987 114.84 90.016C117.741 89.248 119.917 88.5227 121.368 87.84L123.032 97.824C121.581 98.592 119.021 99.4027 115.352 100.256C111.768 101.109 107.672 101.536 103.064 101.536C97.2613 101.536 92.2267 100.683 87.96 98.976C83.7787 97.184 80.3227 94.752 77.592 91.68C74.8613 88.608 72.8133 84.9813 71.448 80.8C70.168 76.5333 69.528 71.8827 69.528 66.848ZM115.224 60.32C115.309 54.944 113.944 50.5493 111.128 47.136C108.397 43.6373 104.6 41.888 99.736 41.888C97.0053 41.888 94.5733 42.4427 92.44 43.552C90.392 44.576 88.6427 45.9413 87.192 47.648C85.7413 49.3547 84.5893 51.3173 83.736 53.536C82.968 55.7547 82.456 58.016 82.2 60.32H115.224ZM160.228 91.424C165.092 91.424 168.676 90.784 170.98 89.504C173.369 88.224 174.564 86.176 174.564 83.36C174.564 80.4587 173.412 78.1547 171.108 76.448C168.804 74.7413 165.007 72.8213 159.716 70.688C157.156 69.664 154.681 68.64 152.292 67.616C149.988 66.5067 147.983 65.2267 146.276 63.776C144.569 62.3253 143.204 60.576 142.18 58.528C141.156 56.48 140.644 53.9627 140.644 50.976C140.644 45.088 142.82 40.4373 147.172 37.024C151.524 33.5253 157.455 31.776 164.964 31.776C166.841 31.776 168.719 31.904 170.596 32.16C172.473 32.3307 174.223 32.5867 175.844 32.928C177.465 33.184 178.873 33.4827 180.068 33.824C181.348 34.1653 182.329 34.464 183.012 34.72L180.836 44.96C179.556 44.2773 177.551 43.5947 174.82 42.912C172.089 42.144 168.804 41.76 164.964 41.76C161.636 41.76 158.735 42.4427 156.26 43.808C153.785 45.088 152.548 47.136 152.548 49.952C152.548 51.4027 152.804 52.6827 153.316 53.792C153.913 54.9013 154.767 55.9253 155.876 56.864C157.071 57.7173 158.521 58.528 160.228 59.296C161.935 60.064 163.983 60.8747 166.372 61.728C169.529 62.9227 172.345 64.1173 174.82 65.312C177.295 66.4213 179.385 67.744 181.092 69.28C182.884 70.816 184.249 72.6933 185.188 74.912C186.127 77.0453 186.596 79.6907 186.596 82.848C186.596 88.992 184.292 93.6427 179.684 96.8C175.161 99.9573 168.676 101.536 160.228 101.536C154.34 101.536 149.732 101.024 146.404 100C143.076 99.0613 140.815 98.336 139.62 97.824L141.796 87.584C143.161 88.096 145.337 88.864 148.324 89.888C151.311 90.912 155.279 91.424 160.228 91.424ZM254.857 98.08C252.126 98.7627 248.5 99.488 243.977 100.256C239.54 101.024 234.377 101.408 228.489 101.408C223.369 101.408 219.06 100.683 215.561 99.232C212.062 97.696 209.246 95.5627 207.113 92.832C204.98 90.1013 203.444 86.9013 202.505 83.232C201.566 79.4773 201.097 75.3387 201.097 70.816V33.44H213.001V68.256C213.001 76.3627 214.281 82.1653 216.841 85.664C219.401 89.1627 223.71 90.912 229.769 90.912C231.049 90.912 232.372 90.8693 233.737 90.784C235.102 90.6987 236.382 90.6133 237.577 90.528C238.772 90.3573 239.838 90.2293 240.777 90.144C241.801 89.9733 242.526 89.8027 242.953 89.632V33.44H254.857V98.08ZM243.465 8.224L225.417 25.76L219.401 20.384L235.785 0.671997L243.465 8.224ZM290.853 91.424C295.717 91.424 299.301 90.784 301.605 89.504C303.994 88.224 305.189 86.176 305.189 83.36C305.189 80.4587 304.037 78.1547 301.733 76.448C299.429 74.7413 295.632 72.8213 290.341 70.688C287.781 69.664 285.306 68.64 282.917 67.616C280.613 66.5067 278.608 65.2267 276.901 63.776C275.194 62.3253 273.829 60.576 272.805 58.528C271.781 56.48 271.269 53.9627 271.269 50.976C271.269 45.088 273.445 40.4373 277.797 37.024C282.149 33.5253 288.08 31.776 295.589 31.776C297.466 31.776 299.344 31.904 301.221 32.16C303.098 32.3307 304.848 32.5867 306.469 32.928C308.09 33.184 309.498 33.4827 310.693 33.824C311.973 34.1653 312.954 34.464 313.637 34.72L311.461 44.96C310.181 44.2773 308.176 43.5947 305.445 42.912C302.714 42.144 299.429 41.76 295.589 41.76C292.261 41.76 289.36 42.4427 286.885 43.808C284.41 45.088 283.173 47.136 283.173 49.952C283.173 51.4027 283.429 52.6827 283.941 53.792C284.538 54.9013 285.392 55.9253 286.501 56.864C287.696 57.7173 289.146 58.528 290.853 59.296C292.56 60.064 294.608 60.8747 296.997 61.728C300.154 62.9227 302.97 64.1173 305.445 65.312C307.92 66.4213 310.01 67.744 311.717 69.28C313.509 70.816 314.874 72.6933 315.813 74.912C316.752 77.0453 317.221 79.6907 317.221 82.848C317.221 88.992 314.917 93.6427 310.309 96.8C305.786 99.9573 299.301 101.536 290.853 101.536C284.965 101.536 280.357 101.024 277.029 100C273.701 99.0613 271.44 98.336 270.245 97.824L272.421 87.584C273.786 88.096 275.962 88.864 278.949 89.888C281.936 90.912 285.904 91.424 290.853 91.424ZM401.027 101.92C394.798 101.92 389.123 100.896 384.003 98.848C378.883 96.8 374.488 93.8133 370.819 89.888C367.15 85.9627 364.291 81.1413 362.243 75.424C360.28 69.6213 359.299 63.008 359.299 55.584C359.299 48.16 360.408 41.5893 362.627 35.872C364.931 30.0693 368.003 25.2053 371.843 21.28C375.683 17.3547 380.163 14.368 385.283 12.32C390.403 10.272 395.864 9.24799 401.667 9.24799C405.336 9.24799 408.622 9.504 411.523 10.016C414.51 10.528 417.07 11.1253 419.203 11.808C421.422 12.4907 423.214 13.1733 424.579 13.856C425.944 14.5387 426.883 15.0507 427.395 15.392L423.811 25.632C423.043 25.12 421.934 24.5653 420.483 23.968C419.032 23.3707 417.368 22.7733 415.491 22.176C413.699 21.5787 411.694 21.1093 409.475 20.768C407.342 20.3413 405.166 20.128 402.947 20.128C398.254 20.128 394.03 20.9387 390.275 22.56C386.52 24.1813 383.32 26.528 380.675 29.6C378.03 32.672 375.982 36.4267 374.531 40.864C373.166 45.216 372.483 50.1227 372.483 55.584C372.483 60.8747 373.08 65.696 374.275 70.048C375.555 74.4 377.432 78.1547 379.907 81.312C382.382 84.384 385.454 86.7733 389.123 88.48C392.878 90.1867 397.23 91.04 402.179 91.04C407.896 91.04 412.632 90.4427 416.387 89.248C420.142 88.0533 422.958 86.9867 424.835 86.048L428.035 96.288C427.438 96.7147 426.371 97.2693 424.835 97.952C423.299 98.5493 421.379 99.1467 419.075 99.744C416.771 100.341 414.083 100.853 411.011 101.28C407.939 101.707 404.611 101.92 401.027 101.92ZM498.367 66.72C498.367 72.0107 497.599 76.7893 496.063 81.056C494.527 85.3227 492.351 88.992 489.535 92.064C486.804 95.136 483.519 97.5253 479.679 99.232C475.839 100.853 471.658 101.664 467.135 101.664C462.612 101.664 458.431 100.853 454.591 99.232C450.751 97.5253 447.423 95.136 444.607 92.064C441.876 88.992 439.743 85.3227 438.207 81.056C436.671 76.7893 435.903 72.0107 435.903 66.72C435.903 61.5147 436.671 56.7787 438.207 52.512C439.743 48.16 441.876 44.448 444.607 41.376C447.423 38.304 450.751 35.9573 454.591 34.336C458.431 32.6293 462.612 31.776 467.135 31.776C471.658 31.776 475.839 32.6293 479.679 34.336C483.519 35.9573 486.804 38.304 489.535 41.376C492.351 44.448 494.527 48.16 496.063 52.512C497.599 56.7787 498.367 61.5147 498.367 66.72ZM485.951 66.72C485.951 59.2107 484.244 53.28 480.831 48.928C477.503 44.4907 472.938 42.272 467.135 42.272C461.332 42.272 456.724 44.4907 453.311 48.928C449.983 53.28 448.319 59.2107 448.319 66.72C448.319 74.2293 449.983 80.2027 453.311 84.64C456.724 88.992 461.332 91.168 467.135 91.168C472.938 91.168 477.503 88.992 480.831 84.64C484.244 80.2027 485.951 74.2293 485.951 66.72ZM527.019 36.384C528.47 35.4453 530.646 34.464 533.547 33.44C536.534 32.416 539.947 31.904 543.787 31.904C548.566 31.904 552.79 32.7573 556.459 34.464C560.214 36.1707 563.371 38.56 565.931 41.632C568.491 44.704 570.411 48.3733 571.691 52.64C573.056 56.9067 573.739 61.6 573.739 66.72C573.739 72.096 572.928 76.96 571.307 81.312C569.771 85.5787 567.552 89.2053 564.651 92.192C561.75 95.1787 558.251 97.4827 554.155 99.104C550.059 100.725 545.451 101.536 540.331 101.536C534.784 101.536 529.878 101.152 525.611 100.384C521.344 99.616 517.846 98.848 515.115 98.08V2.71999L527.019 0.671997V36.384ZM527.019 89.632C528.214 89.9733 529.878 90.3147 532.011 90.656C534.23 90.912 536.96 91.04 540.203 91.04C546.603 91.04 551.723 88.9493 555.563 84.768C559.403 80.5013 561.323 74.4853 561.323 66.72C561.323 63.3067 560.982 60.1067 560.299 57.12C559.616 54.1333 558.507 51.5733 556.971 49.44C555.435 47.2213 553.43 45.5147 550.955 44.32C548.566 43.04 545.664 42.4 542.251 42.4C539.008 42.4 536.022 42.9547 533.291 44.064C530.56 45.1733 528.47 46.3253 527.019 47.52V89.632ZM649.242 66.72C649.242 72.0107 648.474 76.7893 646.938 81.056C645.402 85.3227 643.226 88.992 640.41 92.064C637.679 95.136 634.394 97.5253 630.554 99.232C626.714 100.853 622.533 101.664 618.01 101.664C613.487 101.664 609.306 100.853 605.466 99.232C601.626 97.5253 598.298 95.136 595.482 92.064C592.751 88.992 590.618 85.3227 589.082 81.056C587.546 76.7893 586.778 72.0107 586.778 66.72C586.778 61.5147 587.546 56.7787 589.082 52.512C590.618 48.16 592.751 44.448 595.482 41.376C598.298 38.304 601.626 35.9573 605.466 34.336C609.306 32.6293 613.487 31.776 618.01 31.776C622.533 31.776 626.714 32.6293 630.554 34.336C634.394 35.9573 637.679 38.304 640.41 41.376C643.226 44.448 645.402 48.16 646.938 52.512C648.474 56.7787 649.242 61.5147 649.242 66.72ZM636.826 66.72C636.826 59.2107 635.119 53.28 631.706 48.928C628.378 44.4907 623.813 42.272 618.01 42.272C612.207 42.272 607.599 44.4907 604.186 48.928C600.858 53.28 599.194 59.2107 599.194 66.72C599.194 74.2293 600.858 80.2027 604.186 84.64C607.599 88.992 612.207 91.168 618.01 91.168C623.813 91.168 628.378 88.992 631.706 84.64C635.119 80.2027 636.826 74.2293 636.826 66.72Z" fill="#FFFEFE"/>
</svg>
