<svg width="11" height="3" viewBox="0 0 11 3" fill="none" xmlns="http://www.w3.org/2000/svg">
<path d="M0.44025 2.42C0.401583 2.42 0.367583 2.41733 0.33825 2.412C0.308917 2.408 0.283583 2.40333 0.26225 2.398V2.146C0.28225 2.15133 0.303583 2.156 0.32625 2.16C0.348917 2.164 0.37225 2.166 0.39625 2.166C0.434917 2.166 0.46625 2.15933 0.49025 2.146C0.515583 2.13267 0.53425 2.10733 0.54625 2.07C0.559583 2.03267 0.56625 1.97933 0.56625 1.91V0.572H0.89025V1.908C0.89025 2.03067 0.871583 2.12933 0.83425 2.204C0.796917 2.28 0.74425 2.33467 0.67625 2.368C0.609583 2.40267 0.530917 2.42 0.44025 2.42ZM1.63083 0.888C1.72816 0.888 1.81216 0.907333 1.88283 0.946C1.95349 0.984667 2.00816 1.04067 2.04683 1.114C2.08549 1.18733 2.10483 1.27733 2.10483 1.384V1.528H1.45483C1.45749 1.612 1.47883 1.678 1.51883 1.726C1.56016 1.774 1.61883 1.798 1.69483 1.798C1.76149 1.798 1.82149 1.79133 1.87483 1.778C1.92949 1.76333 1.98549 1.74133 2.04283 1.712V1.942C1.99349 1.96867 1.93949 1.988 1.88083 2C1.82349 2.01333 1.75216 2.02 1.66683 2.02C1.56283 2.02 1.47016 2 1.38883 1.96C1.30883 1.91867 1.24549 1.85667 1.19883 1.774C1.15349 1.69133 1.13083 1.58733 1.13083 1.462C1.13083 1.334 1.15149 1.228 1.19283 1.144C1.23549 1.05867 1.29416 0.994667 1.36883 0.952C1.44483 0.909333 1.53216 0.888 1.63083 0.888ZM1.63683 1.1C1.58883 1.1 1.54883 1.11867 1.51683 1.156C1.48483 1.19333 1.46616 1.25133 1.46083 1.33H1.81083C1.81083 1.286 1.80416 1.24667 1.79083 1.212C1.77749 1.17733 1.75816 1.15 1.73283 1.13C1.70749 1.11 1.67549 1.1 1.63683 1.1ZM3.06555 1.676C3.06555 1.74933 3.04955 1.812 3.01755 1.864C2.98688 1.91467 2.93955 1.95333 2.87555 1.98C2.81155 2.00667 2.72888 2.02 2.62755 2.02C2.55421 2.02 2.49021 2.01467 2.43555 2.004C2.38088 1.99467 2.32555 1.97867 2.26955 1.956V1.71C2.33088 1.73667 2.39421 1.75867 2.45955 1.776C2.52488 1.79333 2.57955 1.802 2.62355 1.802C2.67155 1.802 2.70555 1.79333 2.72555 1.776C2.74688 1.75867 2.75755 1.736 2.75755 1.708C2.75755 1.68933 2.75221 1.67267 2.74155 1.658C2.73088 1.64333 2.70955 1.62667 2.67755 1.608C2.64555 1.58933 2.59821 1.56533 2.53555 1.536C2.47421 1.50667 2.42355 1.478 2.38355 1.45C2.34488 1.42067 2.31555 1.386 2.29555 1.346C2.27688 1.30467 2.26755 1.25333 2.26755 1.192C2.26755 1.09067 2.30555 1.01467 2.38155 0.964C2.45888 0.913333 2.56021 0.888 2.68555 0.888C2.75221 0.888 2.81488 0.894667 2.87355 0.908C2.93221 0.921333 2.99288 0.943333 3.05555 0.974L2.96555 1.188C2.93088 1.172 2.89688 1.158 2.86355 1.146C2.83021 1.134 2.79821 1.12467 2.76755 1.118C2.73821 1.11133 2.71021 1.108 2.68355 1.108C2.64888 1.108 2.62221 1.114 2.60355 1.126C2.58621 1.138 2.57755 1.156 2.57755 1.18C2.57755 1.19733 2.58288 1.21333 2.59355 1.228C2.60421 1.24133 2.62488 1.25667 2.65555 1.274C2.68621 1.29 2.73088 1.31067 2.78955 1.336C2.84955 1.36133 2.89955 1.388 2.93955 1.416C2.98088 1.44267 3.01221 1.47667 3.03355 1.518C3.05488 1.558 3.06555 1.61067 3.06555 1.676ZM4.25067 0.908V2H4.00867L3.96667 1.86H3.94867C3.92734 1.89733 3.90001 1.928 3.86667 1.952C3.83467 1.97467 3.79867 1.99133 3.75867 2.002C3.71867 2.014 3.67734 2.02 3.63467 2.02C3.56401 2.02 3.50134 2.006 3.44667 1.978C3.39201 1.95 3.34867 1.90667 3.31667 1.848C3.28601 1.78933 3.27067 1.71333 3.27067 1.62V0.908H3.59067V1.546C3.59067 1.62333 3.60201 1.682 3.62467 1.722C3.64734 1.762 3.68401 1.782 3.73467 1.782C3.78667 1.782 3.82667 1.768 3.85467 1.74C3.88267 1.712 3.90201 1.67133 3.91267 1.618C3.92467 1.56467 3.93067 1.49933 3.93067 1.422V0.908H4.25067ZM4.19267 0.488C4.17267 0.506667 4.14667 0.529333 4.11467 0.556C4.08401 0.582667 4.05067 0.610667 4.01467 0.64C3.97867 0.669333 3.94401 0.697333 3.91067 0.724C3.87734 0.749333 3.84801 0.770667 3.82267 0.788H3.61067V0.762C3.63201 0.736667 3.65667 0.707333 3.68467 0.674C3.71267 0.639333 3.74067 0.604 3.76867 0.568C3.79801 0.530667 3.82201 0.497333 3.84067 0.468H4.19267V0.488ZM5.26672 1.676C5.26672 1.74933 5.25072 1.812 5.21872 1.864C5.18805 1.91467 5.14072 1.95333 5.07672 1.98C5.01272 2.00667 4.93005 2.02 4.82872 2.02C4.75539 2.02 4.69139 2.01467 4.63672 2.004C4.58205 1.99467 4.52672 1.97867 4.47072 1.956V1.71C4.53205 1.73667 4.59539 1.75867 4.66072 1.776C4.72605 1.79333 4.78072 1.802 4.82472 1.802C4.87272 1.802 4.90672 1.79333 4.92672 1.776C4.94805 1.75867 4.95872 1.736 4.95872 1.708C4.95872 1.68933 4.95339 1.67267 4.94272 1.658C4.93205 1.64333 4.91072 1.62667 4.87872 1.608C4.84672 1.58933 4.79939 1.56533 4.73672 1.536C4.67539 1.50667 4.62472 1.478 4.58472 1.45C4.54605 1.42067 4.51672 1.386 4.49672 1.346C4.47805 1.30467 4.46872 1.25333 4.46872 1.192C4.46872 1.09067 4.50672 1.01467 4.58272 0.964C4.66005 0.913333 4.76139 0.888 4.88672 0.888C4.95339 0.888 5.01605 0.894667 5.07472 0.908C5.13339 0.921333 5.19405 0.943333 5.25672 0.974L5.16672 1.188C5.13205 1.172 5.09805 1.158 5.06472 1.146C5.03139 1.134 4.99939 1.12467 4.96872 1.118C4.93939 1.11133 4.91139 1.108 4.88472 1.108C4.85005 1.108 4.82339 1.114 4.80472 1.126C4.78739 1.138 4.77872 1.156 4.77872 1.18C4.77872 1.19733 4.78405 1.21333 4.79472 1.228C4.80539 1.24133 4.82605 1.25667 4.85672 1.274C4.88739 1.29 4.93205 1.31067 4.99072 1.336C5.05072 1.36133 5.10072 1.388 5.14072 1.416C5.18205 1.44267 5.21339 1.47667 5.23472 1.518C5.25605 1.558 5.26672 1.61067 5.26672 1.676ZM6.56813 0.804C6.52013 0.804 6.47679 0.815333 6.43813 0.838C6.40079 0.860667 6.36879 0.893333 6.34212 0.936C6.31546 0.977333 6.29546 1.028 6.28213 1.088C6.26879 1.148 6.26213 1.21533 6.26213 1.29C6.26213 1.39133 6.27346 1.478 6.29613 1.55C6.31879 1.62067 6.35346 1.67467 6.40013 1.712C6.44679 1.74933 6.50613 1.768 6.57813 1.768C6.63546 1.768 6.69146 1.76133 6.74613 1.748C6.80213 1.73467 6.86013 1.716 6.92013 1.692V1.946C6.86146 1.97133 6.80213 1.99 6.74213 2.002C6.68213 2.014 6.61679 2.02 6.54613 2.02C6.40346 2.02 6.28679 1.99 6.19613 1.93C6.10546 1.86867 6.03813 1.78333 5.99413 1.674C5.95146 1.56333 5.93013 1.43467 5.93013 1.288C5.93013 1.18 5.94413 1.08133 5.97213 0.992C6.00013 0.901333 6.04146 0.823333 6.09613 0.758C6.15079 0.692667 6.21746 0.642 6.29613 0.606C6.37613 0.57 6.46746 0.552 6.57013 0.552C6.63679 0.552 6.70679 0.561333 6.78013 0.58C6.85479 0.597333 6.91946 0.621333 6.97413 0.652L6.87213 0.898C6.82279 0.872667 6.77279 0.850667 6.72213 0.832C6.67279 0.813333 6.62146 0.804 6.56813 0.804ZM8.13316 1.452C8.13316 1.54267 8.12116 1.62333 8.09716 1.694C8.07449 1.76467 8.04116 1.82467 7.99716 1.874C7.95316 1.922 7.89916 1.95867 7.83516 1.984C7.77249 2.008 7.70182 2.02 7.62316 2.02C7.54982 2.02 7.48182 2.008 7.41916 1.984C7.35649 1.95867 7.30249 1.922 7.25716 1.874C7.21316 1.82467 7.17849 1.76467 7.15316 1.694C7.12916 1.62333 7.11716 1.54267 7.11716 1.452C7.11716 1.33067 7.13782 1.22867 7.17916 1.146C7.22049 1.062 7.27916 0.998 7.35516 0.954C7.43116 0.91 7.52249 0.888 7.62916 0.888C7.72782 0.888 7.81449 0.91 7.88916 0.954C7.96516 0.998 8.02449 1.062 8.06716 1.146C8.11116 1.22867 8.13316 1.33067 8.13316 1.452ZM7.44316 1.452C7.44316 1.524 7.44916 1.58467 7.46116 1.634C7.47449 1.682 7.49449 1.71867 7.52116 1.744C7.54916 1.768 7.58449 1.78 7.62716 1.78C7.67116 1.78 7.70582 1.768 7.73116 1.744C7.75782 1.71867 7.77716 1.682 7.78916 1.634C7.80116 1.58467 7.80716 1.524 7.80716 1.452C7.80716 1.38 7.80116 1.32 7.78916 1.272C7.77716 1.224 7.75716 1.188 7.72916 1.164C7.70249 1.14 7.66782 1.128 7.62516 1.128C7.55982 1.128 7.51316 1.15533 7.48516 1.21C7.45716 1.26333 7.44316 1.344 7.44316 1.452ZM8.67084 0.834C8.67084 0.875333 8.66951 0.916 8.66684 0.956C8.66418 0.996 8.66151 1.02733 8.65884 1.05H8.67084C8.69751 1.00467 8.73284 0.966667 8.77684 0.936C8.82218 0.904 8.88151 0.888 8.95484 0.888C9.06551 0.888 9.15618 0.936 9.22684 1.032C9.29751 1.12667 9.33284 1.26667 9.33284 1.452C9.33284 1.576 9.31618 1.68067 9.28284 1.766C9.25084 1.85 9.20551 1.91333 9.14684 1.956C9.08951 1.99867 9.02218 2.02 8.94484 2.02C8.87151 2.02 8.81418 2.006 8.77284 1.978C8.73151 1.94867 8.69751 1.916 8.67084 1.88H8.64884L8.59884 2H8.35084V0.48H8.67084V0.834ZM8.84284 1.126C8.80284 1.126 8.77018 1.13667 8.74484 1.158C8.71951 1.17933 8.70084 1.212 8.68884 1.256C8.67684 1.29867 8.67084 1.35267 8.67084 1.418V1.45C8.67084 1.55533 8.68351 1.63667 8.70884 1.694C8.73418 1.75 8.78018 1.778 8.84684 1.778C8.89751 1.778 8.93684 1.75 8.96484 1.694C8.99284 1.63667 9.00684 1.55467 9.00684 1.448C9.00684 1.34133 8.99284 1.26133 8.96484 1.208C8.93684 1.15333 8.89618 1.126 8.84284 1.126ZM10.5121 1.452C10.5121 1.54267 10.5001 1.62333 10.4761 1.694C10.4534 1.76467 10.4201 1.82467 10.3761 1.874C10.3321 1.922 10.2781 1.95867 10.2141 1.984C10.1514 2.008 10.0807 2.02 10.0021 2.02C9.92873 2.02 9.86073 2.008 9.79806 1.984C9.7354 1.95867 9.6814 1.922 9.63606 1.874C9.59206 1.82467 9.5574 1.76467 9.53206 1.694C9.50806 1.62333 9.49606 1.54267 9.49606 1.452C9.49606 1.33067 9.51673 1.22867 9.55806 1.146C9.5994 1.062 9.65806 0.998 9.73406 0.954C9.81006 0.91 9.9014 0.888 10.0081 0.888C10.1067 0.888 10.1934 0.91 10.2681 0.954C10.3441 0.998 10.4034 1.062 10.4461 1.146C10.4901 1.22867 10.5121 1.33067 10.5121 1.452ZM9.82206 1.452C9.82206 1.524 9.82806 1.58467 9.84006 1.634C9.8534 1.682 9.8734 1.71867 9.90006 1.744C9.92806 1.768 9.9634 1.78 10.0061 1.78C10.0501 1.78 10.0847 1.768 10.1101 1.744C10.1367 1.71867 10.1561 1.682 10.1681 1.634C10.1801 1.58467 10.1861 1.524 10.1861 1.452C10.1861 1.38 10.1801 1.32 10.1681 1.272C10.1561 1.224 10.1361 1.188 10.1081 1.164C10.0814 1.14 10.0467 1.128 10.0041 1.128C9.93873 1.128 9.89206 1.15533 9.86406 1.21C9.83606 1.26333 9.82206 1.344 9.82206 1.452Z" fill="white"/>
</svg>
